<svg width="240" height="72" viewBox="0 0 240 72" fill="none" xmlns="http://www.w3.org/2000/svg">
    <path d="M42.08 10.56C42.4213 11.9253 42.592 13.632 42.592 15.68C42.592 17.6427 42.4213 19.3493 42.08 20.8C42.4213 22.1653 42.592 23.872 42.592 25.92C42.592 27.8827 42.4213 29.5893 42.08 31.04C42.4213 32.4053 42.592 34.112 42.592 36.16C42.592 38.1227 42.4213 39.8293 42.08 41.28C42.4213 42.6453 42.592 44.352 42.592 46.4C42.592 48.3627 42.4213 50.0693 42.08 51.52C42.4213 52.8853 42.592 54.592 42.592 56.64C42.592 58.6027 42.4213 60.3093 42.08 61.76H36.96C37.3013 63.1253 37.472 64.832 37.472 66.88C37.472 68.8427 37.3013 70.5493 36.96 72H6.24C5.89867 70.5493 5.728 68.8427 5.728 66.88C5.728 64.832 5.89867 63.1253 6.24 61.76H1.12C0.778667 60.3093 0.608 58.6027 0.608 56.64C0.608 54.592 0.778667 52.8853 1.12 51.52C0.778667 50.0693 0.608 48.3627 0.608 46.4C0.608 44.352 0.778667 42.6453 1.12 41.28C0.778667 39.8293 0.608 38.1227 0.608 36.16C0.608 34.112 0.778667 32.4053 1.12 31.04C0.778667 29.5893 0.608 27.8827 0.608 25.92C0.608 23.872 0.778667 22.1653 1.12 20.8C0.778667 19.3493 0.608 17.6427 0.608 15.68C0.608 13.632 0.778667 11.9253 1.12 10.56C0.778667 9.10933 0.608 7.40266 0.608 5.43999C0.608 3.392 0.778667 1.68533 1.12 0.32H11.36C11.7013 1.68533 11.872 3.392 11.872 5.43999C11.872 7.40266 11.7013 9.10933 11.36 10.56C11.7013 11.9253 11.872 13.632 11.872 15.68C11.872 17.6427 11.7013 19.3493 11.36 20.8C11.7013 22.1653 11.872 23.872 11.872 25.92C11.872 27.8827 11.7013 29.5893 11.36 31.04C11.7013 32.4053 11.872 34.112 11.872 36.16C11.872 38.1227 11.7013 39.8293 11.36 41.28C11.7013 42.6453 11.872 44.352 11.872 46.4C11.872 48.3627 11.7013 50.0693 11.36 51.52C11.7013 52.8853 11.872 54.592 11.872 56.64C11.872 58.6027 11.7013 60.3093 11.36 61.76H31.84C31.4987 60.3093 31.328 58.6027 31.328 56.64C31.328 54.592 31.4987 52.8853 31.84 51.52C31.4987 50.0693 31.328 48.3627 31.328 46.4C31.328 44.352 31.4987 42.6453 31.84 41.28C31.4987 39.8293 31.328 38.1227 31.328 36.16C31.328 34.112 31.4987 32.4053 31.84 31.04C31.4987 29.5893 31.328 27.8827 31.328 25.92C31.328 23.872 31.4987 22.1653 31.84 20.8C31.4987 19.3493 31.328 17.6427 31.328 15.68C31.328 13.632 31.4987 11.9253 31.84 10.56C31.4987 9.10933 31.328 7.40266 31.328 5.43999C31.328 3.392 31.4987 1.68533 31.84 0.32H42.08C42.4213 1.68533 42.592 3.392 42.592 5.43999C42.592 7.40266 42.4213 9.10933 42.08 10.56ZM91.33 31.04C91.6713 32.4053 91.842 34.112 91.842 36.16C91.842 38.1227 91.6713 39.8293 91.33 41.28H81.09C80.7487 39.8293 80.578 38.1227 80.578 36.16C80.578 34.112 80.7487 32.4053 81.09 31.04H72.13C72.4713 32.4053 72.642 34.112 72.642 36.16C72.642 38.1227 72.4713 39.8293 72.13 41.28H68.29C68.6313 42.6453 68.802 44.352 68.802 46.4C68.802 48.3627 68.6313 50.0693 68.29 51.52C68.6313 52.8853 68.802 54.592 68.802 56.64C68.802 58.6027 68.6313 60.3093 68.29 61.76H75.97C76.3113 63.1253 76.482 64.832 76.482 66.88C76.482 68.8427 76.3113 70.5493 75.97 72H50.37C50.0287 70.5493 49.858 68.8427 49.858 66.88C49.858 64.832 50.0287 63.1253 50.37 61.76H58.05C57.7087 60.3093 57.538 58.6027 57.538 56.64C57.538 54.592 57.7087 52.8853 58.05 51.52C57.7087 50.0693 57.538 48.3627 57.538 46.4C57.538 44.352 57.7087 42.6453 58.05 41.28C57.7087 39.8293 57.538 38.1227 57.538 36.16C57.538 34.112 57.7087 32.4053 58.05 31.04H50.37C50.0287 29.5893 49.858 27.8827 49.858 25.92C49.858 23.872 50.0287 22.1653 50.37 20.8H63.17C63.5113 22.1653 63.682 23.872 63.682 25.92C63.682 27.8827 63.5113 29.5893 63.17 31.04H68.29C67.9487 29.5893 67.778 27.8827 67.778 25.92C67.778 23.872 67.9487 22.1653 68.29 20.8H87.49C87.8313 22.1653 88.002 23.872 88.002 25.92C88.002 27.8827 87.8313 29.5893 87.49 31.04H91.33ZM140.58 61.76C140.921 63.1253 141.092 64.832 141.092 66.88C141.092 68.8427 140.921 70.5493 140.58 72H130.34C129.999 70.5493 129.828 68.8427 129.828 66.88C129.828 64.832 129.999 63.1253 130.34 61.76H125.22C124.879 60.3093 124.708 58.6027 124.708 56.64C124.708 54.592 124.879 52.8853 125.22 51.52H109.86C110.201 52.8853 110.372 54.592 110.372 56.64C110.372 58.6027 110.201 60.3093 109.86 61.76H125.22C125.561 63.1253 125.732 64.832 125.732 66.88C125.732 68.8427 125.561 70.5493 125.22 72H104.74C104.399 70.5493 104.228 68.8427 104.228 66.88C104.228 64.832 104.399 63.1253 104.74 61.76H99.62C99.2787 60.3093 99.108 58.6027 99.108 56.64C99.108 54.592 99.2787 52.8853 99.62 51.52H104.74C104.399 50.0693 104.228 48.3627 104.228 46.4C104.228 44.352 104.399 42.6453 104.74 41.28H125.22C124.879 39.8293 124.708 38.1227 124.708 36.16C124.708 34.112 124.879 32.4053 125.22 31.04H107.3C106.959 29.5893 106.788 27.8827 106.788 25.92C106.788 23.872 106.959 22.1653 107.3 20.8H130.34C130.681 22.1653 130.852 23.872 130.852 25.92C130.852 27.8827 130.681 29.5893 130.34 31.04H135.46C135.801 32.4053 135.972 34.112 135.972 36.16C135.972 38.1227 135.801 39.8293 135.46 41.28C135.801 42.6453 135.972 44.352 135.972 46.4C135.972 48.3627 135.801 50.0693 135.46 51.52C135.801 52.8853 135.972 54.592 135.972 56.64C135.972 58.6027 135.801 60.3093 135.46 61.76H140.58ZM184.71 61.76C185.051 63.1253 185.222 64.832 185.222 66.88C185.222 68.8427 185.051 70.5493 184.71 72H164.23C163.889 70.5493 163.718 68.8427 163.718 66.88C163.718 64.832 163.889 63.1253 164.23 61.76H159.11C158.769 60.3093 158.598 58.6027 158.598 56.64C158.598 54.592 158.769 52.8853 159.11 51.52C158.769 50.0693 158.598 48.3627 158.598 46.4C158.598 44.352 158.769 42.6453 159.11 41.28C158.769 39.8293 158.598 38.1227 158.598 36.16C158.598 34.112 158.769 32.4053 159.11 31.04H148.87C148.529 29.5893 148.358 27.8827 148.358 25.92C148.358 23.872 148.529 22.1653 148.87 20.8H159.11C158.769 19.3493 158.598 17.6427 158.598 15.68C158.598 13.632 158.769 11.9253 159.11 10.56C158.769 9.10933 158.598 7.40266 158.598 5.43999C158.598 3.392 158.769 1.68533 159.11 0.32H169.35C169.691 1.68533 169.862 3.392 169.862 5.43999C169.862 7.40266 169.691 9.10933 169.35 10.56C169.691 11.9253 169.862 13.632 169.862 15.68C169.862 17.6427 169.691 19.3493 169.35 20.8H184.71C185.051 22.1653 185.222 23.872 185.222 25.92C185.222 27.8827 185.051 29.5893 184.71 31.04H169.35C169.691 32.4053 169.862 34.112 169.862 36.16C169.862 38.1227 169.691 39.8293 169.35 41.28C169.691 42.6453 169.862 44.352 169.862 46.4C169.862 48.3627 169.691 50.0693 169.35 51.52C169.691 52.8853 169.862 54.592 169.862 56.64C169.862 58.6027 169.691 60.3093 169.35 61.76H184.71ZM205.8 10.56C205.459 9.10933 205.288 7.40266 205.288 5.43999C205.288 3.392 205.459 1.68533 205.8 0.32H216.04C216.381 1.68533 216.552 3.392 216.552 5.43999C216.552 7.40266 216.381 9.10933 216.04 10.56H205.8ZM226.28 10.56C225.939 9.10933 225.768 7.40266 225.768 5.43999C225.768 3.392 225.939 1.68533 226.28 0.32H236.52C236.861 1.68533 237.032 3.392 237.032 5.43999C237.032 7.40266 236.861 9.10933 236.52 10.56H226.28ZM239.592 36.16C239.592 38.1227 239.421 39.8293 239.08 41.28C239.421 42.6453 239.592 44.352 239.592 46.4C239.592 48.3627 239.421 50.0693 239.08 51.52H212.2C212.541 52.8853 212.712 54.592 212.712 56.64C212.712 58.6027 212.541 60.3093 212.2 61.76H233.96C234.301 63.1253 234.472 64.832 234.472 66.88C234.472 68.8427 234.301 70.5493 233.96 72H208.36C208.019 70.5493 207.848 68.8427 207.848 66.88C207.848 64.832 208.019 63.1253 208.36 61.76H201.96C201.619 60.3093 201.448 58.6027 201.448 56.64C201.448 54.592 201.619 52.8853 201.96 51.52H198.12C197.779 50.0693 197.608 48.3627 197.608 46.4C197.608 44.352 197.779 42.6453 198.12 41.28H201.96C201.619 39.8293 201.448 38.1227 201.448 36.16C201.448 34.112 201.619 32.4053 201.96 31.04H208.36C208.019 29.5893 207.848 27.8827 207.848 25.92C207.848 23.872 208.019 22.1653 208.36 20.8H233.96C234.301 22.1653 234.472 23.872 234.472 25.92C234.472 27.8827 234.301 29.5893 233.96 31.04H239.08C239.421 32.4053 239.592 34.112 239.592 36.16ZM228.84 41.28C228.499 39.8293 228.328 38.1227 228.328 36.16C228.328 34.112 228.499 32.4053 228.84 31.04H212.2C212.541 32.4053 212.712 34.112 212.712 36.16C212.712 38.1227 212.541 39.8293 212.2 41.28H228.84Z" fill="#8083FF"/>
</svg>
